<svg viewBox="140 195 220 115" xmlns="http://www.w3.org/2000/svg">
  <g fill="#E8A33D">
    <rect x="150" y="272" width="24" height="24" rx="3"/>
    <rect x="150" y="240" width="24" height="24" rx="3"/>
    <rect x="150" y="208" width="24" height="24" rx="3"/>
    <rect x="184" y="272" width="24" height="24" rx="3"/>
    <rect x="184" y="240" width="24" height="24" rx="3" fill="#000000"/>
    <rect x="218" y="272" width="24" height="24" rx="3" fill="#000000"/>
    <rect x="252" y="272" width="24" height="24" rx="3" fill="#000000"/>
    <rect x="286" y="272" width="24" height="24" rx="3" fill="#000000"/>
    <rect x="286" y="240" width="24" height="24" rx="3"/>
    <rect x="320" y="272" width="24" height="24" rx="3"/>
    <rect x="320" y="240" width="24" height="24" rx="3"/>
    <rect x="320" y="208" width="24" height="24" rx="3"/>
  </g>
</svg>
