<svg viewBox="0 0 500 500" xmlns="http://www.w3.org/2000/svg">
  <rect width="500" height="500" fill="#13151A"/>

  <g fill="#E8A33D">
    <rect x="150" y="272" width="24" height="24" rx="3"/>
    <rect x="150" y="240" width="24" height="24" rx="3"/>
    <rect x="150" y="208" width="24" height="24" rx="3"/>
    <rect x="184" y="272" width="24" height="24" rx="3"/>
    <rect x="184" y="240" width="24" height="24" rx="3" fill="#F2F0EA"/>
    <rect x="218" y="272" width="24" height="24" rx="3" fill="#F2F0EA"/>
    <rect x="252" y="272" width="24" height="24" rx="3" fill="#F2F0EA"/>
    <rect x="286" y="272" width="24" height="24" rx="3" fill="#F2F0EA"/>
    <rect x="286" y="240" width="24" height="24" rx="3"/>
    <rect x="320" y="272" width="24" height="24" rx="3"/>
    <rect x="320" y="240" width="24" height="24" rx="3"/>
    <rect x="320" y="208" width="24" height="24" rx="3"/>
  </g>

  <text x="250" y="367" font-family="'Space Grotesk', Arial, sans-serif" font-weight="700" font-size="64" fill="#F2F0EA" text-anchor="middle" letter-spacing="3">MTABI</text>
</svg>
